PathFileType	4	(X/Y/Z)	./resultDataOpenSim/trcMotMarkerGrf/sub09/qtm-12-01.trc
DataRate	CameraRate	NumFrames	NumMarkers	Units	OrigDataRate	OrigDataStartFrame	OrigNumFrames
250.000000	250.000000	11	24	m	250.000000	65	513
Frame#	Time	L.Toe.Tip			R.Toe.Tip			L.Ankle.Lat			R.Ankle.Lat			L.Ankle.Med			R.Ankle.Med			L.Heel			R.Heel			L.Knee.Lat			R.Knee.Lat			L.Knee.Med			R.Knee.Med			L.Thigh.Upper			R.Thigh.Upper			L.ASIS			R.ASIS			V.Sacral			L.Acromium			R.Acromium			C7			L.Elbow			R.Elbow			L.Wrist.Lat			R.Wrist.Lat
		X1	Y1	Z1	X2	Y2	Z2	X3	Y3	Z3	X4	Y4	Z4	X5	Y5	Z5	X6	Y6	Z6	X7	Y7	Z7	X8	Y8	Z8	X9	Y9	Z9	X10	Y10	Z10	X11	Y11	Z11	X12	Y12	Z12	X13	Y13	Z13	X14	Y14	Z14	X15	Y15	Z15	X16	Y16	Z16	X17	Y17	Z17	X18	Y18	Z18	X19	Y19	Z19	X20	Y20	Z20	X21	Y21	Z21	X22	Y22	Z22	X23	Y23	Z23	X24	Y24	Z24

65	0.256	-1.2997558	0.09151364	-0.043925074	-0.63089845	0.039858262	0.061613153	-1.3260099	0.24836106	-0.092717414	-0.7772698	0.05542647	0.098390819	-1.2955165	0.23074364	-0.00052787889	-0.76708515	0.093240588	0.0057645269	-1.3868534	0.29010504	-0.039658015	-0.84657977	0.030792771	0.051375389	-0.95673311	0.43264415	-0.12922286	-0.70745532	0.50268281	0.15258845	-0.94406902	0.4170516	-0.0040944017	-0.73116164	0.49272048	0.028217665	-0.94012536	0.84236712	-0.1421931	-0.89847046	0.85984271	0.22989199	-0.84380545	0.92830506	-0.092697723	-0.82646462	0.95026471	0.1496294	-1.0017484	0.99439106	0.041823892	-0.83670797	1.3941072	-0.12136279	-0.87089722	1.4014259	0.20732685	-0.91958377	1.4475262	0.039430633	-0.98300526	1.0616781	-0.19906615	-1.0412793	1.0841803	0.27657779	-0.84495612	0.83274867	-0.21098921	-0.95302545	0.82630706	0.30909837
66	0.26	-1.2860855	0.093079991	-0.046531536	-0.6309388	0.039899783	0.061590762	-1.3132928	0.24990309	-0.093236217	-0.77732442	0.055465391	0.098334313	-1.2829565	0.23178249	-0.001129069	-0.76699486	0.09325463	0.0056877324	-1.3747073	0.29098544	-0.039940639	-0.846631	0.030806002	0.051268973	-0.94428082	0.43366763	-0.12905166	-0.7049238	0.50240126	0.15272504	-0.93162879	0.41789756	-0.0038042677	-0.7284368	0.4925261	0.028237162	-0.93370755	0.84345873	-0.14223973	-0.89312585	0.861253	0.22993585	-0.83822018	0.92978893	-0.092552419	-0.82091138	0.9515228	0.14966515	-0.9963211	0.9958601	0.041540893	-0.83114507	1.3953821	-0.1214905	-0.86464207	1.4027697	0.20726284	-0.91386526	1.448906	0.039492127	-0.97793928	1.0632026	-0.19876967	-1.034952	1.085492	0.27721888	-0.84083774	0.83377113	-0.21125896	-0.94582832	0.82778593	0.30907639
67	0.264	-1.2720985	0.09446819	-0.048993518	-0.6309972	0.039945935	0.061594152	-1.3002708	0.25118613	-0.093790709	-0.7774415	0.055502575	0.098269408	-1.2703794	0.23260756	-0.0016821052	-0.76700584	0.093290456	0.0056081151	-1.3624806	0.29153376	-0.040146288	-0.84668608	0.030824393	0.051148363	-0.93185809	0.43484794	-0.12885082	-0.70257792	0.50221116	0.15289789	-0.91923671	0.41890038	-0.0034862713	-0.7259474	0.49230027	0.028385196	-0.92714286	0.84467229	-0.14223392	-0.88784855	0.86263644	0.22999968	-0.83263731	0.93134717	-0.092366043	-0.81542167	0.95278186	0.1497393	-0.99081072	0.99731076	0.041431483	-0.82563587	1.3967107	-0.12161095	-0.85846639	1.4041774	0.20721037	-0.90820484	1.4503341	0.039512189	-0.97292169	1.0647833	-0.19847309	-1.0286551	1.0868341	0.27785057	-0.83690302	0.83485037	-0.2115351	-0.93865883	0.8293278	0.30907836
68	0.268	-1.2577394	0.095703808	-0.051361921	-0.6310739	0.039994834	0.061623763	-1.2871266	0.25223139	-0.094354913	-0.77760387	0.055540429	0.098195765	-1.2577877	0.23324706	-0.0021570473	-0.76709616	0.093351591	0.0055179985	-1.350292	0.29174188	-0.04016213	-0.84674283	0.030844283	0.051018182	-0.91949683	0.43617274	-0.12861565	-0.70040293	0.50204576	0.15313554	-0.90688857	0.42006034	-0.0031437526	-0.72375867	0.49204614	0.028758614	-0.9203965	0.84602018	-0.14220271	-0.88265845	0.86398416	0.23009184	-0.8270504	0.93297419	-0.092136378	-0.81000351	0.95404545	0.14985826	-0.98508656	0.99871817	0.04166481	-0.82018273	1.3980979	-0.12172124	-0.85238459	1.4056423	0.20716976	-0.90251713	1.4517794	0.039490663	-0.96794316	1.0664297	-0.19817103	-1.0223947	1.088194	0.27845371	-0.83302446	0.83599709	-0.21181517	-0.9315283	0.83091792	0.30909332
69	0.272	-1.2429759	0.096794961	-0.05366941	-0.63116428	0.040042717	0.061681755	-1.2739702	0.25303143	-0.094883978	-0.77777994	0.055575067	0.098124182	-1.2452737	0.23370026	-0.0025096681	-0.76720865	0.093433196	0.0054352352	-1.3382048	0.29159058	-0.039925729	-0.84679636	0.030865334	0.050882948	-0.90722315	0.4376108	-0.12834468	-0.69837361	0.50184096	0.15344721	-0.89459236	0.42138018	-0.0027697767	-0.72184717	0.49180258	0.029386744	-0.91348938	0.84749364	-0.14215688	-0.87755416	0.86528944	0.23020302	-0.8214687	0.93466066	-0.091860538	-0.80465689	0.95531188	0.15002706	-0.97935186	1.0001431	0.041957342	-0.81478413	1.399537	-0.1218162	-0.84639932	1.4071486	0.20714031	-0.89680345	1.4532286	0.039433054	-0.96301286	1.0681208	-0.19787061	-1.016158	1.0895635	0.27902892	-0.82917518	0.83719986	-0.21212557	-0.9244378	0.83254681	0.30911556
70	0.276	-1.2278312	0.097726892	-0.055911839	-0.6312611	0.04008637	0.061770803	-1.2608139	0.25356896	-0.095344396	-0.77794226	0.055599105	0.098067	-1.2329558	0.23393267	-0.0026884546	-0.76729744	0.093525453	0.005387344	-1.3261952	0.29109011	-0.039502112	-0.8468411	0.03089266	0.050750196	-0.89498817	0.43913205	-0.12803864	-0.69647505	0.50158276	0.15381159	-0.88236256	0.42286415	-0.002360208	-0.72007679	0.49160333	0.030130967	-0.90656103	0.84906615	-0.14210462	-0.87249021	0.86656048	0.23031828	-0.81590103	0.93639673	-0.091538371	-0.79936748	0.95657503	0.15024296	-0.97389267	1.001666	0.041921084	-0.80943109	1.4010103	-0.12189674	-0.84049489	1.408684	0.20712038	-0.89109956	1.454682	0.039341014	-0.95814542	1.0698246	-0.19758741	-1.0099588	1.0909402	0.27955026	-0.82537733	0.83844592	-0.21248444	-0.91737875	0.83420841	0.30914412
71	0.28	-1.2123596	0.098477561	-0.058076294	-0.63135832	0.040124009	0.061892573	-1.2475985	0.253832	-0.095752816	-0.77807217	0.055610732	0.098024906	-1.2207206	0.23390631	-0.0027165309	-0.76735353	0.093621928	0.005383315	-1.314112	0.29028432	-0.039150849	-0.84687322	0.030932216	0.050630846	-0.88268364	0.44074447	-0.12769654	-0.69466809	0.50127411	0.15419743	-0.87023486	0.42452433	-0.0019317755	-0.71828753	0.49143613	0.030767013	-0.89977953	0.85071316	-0.14205461	-0.86737797	0.86781842	0.23043277	-0.81034734	0.93817984	-0.091178447	-0.79411674	0.95782928	0.15049984	-0.96867812	1.0032947	0.041603652	-0.804113	1.402509	-0.12197161	-0.83464661	1.4102456	0.207104	-0.88542916	1.4561489	0.039215261	-0.95333777	1.0715335	-0.19732843	-1.0038112	1.0923248	0.28000435	-0.82161	0.83974073	-0.21285739	-0.91033665	0.83589519	0.30917592
72	0.284	-1.196618	0.099040318	-0.060160911	-0.63145179	0.040155685	0.062044491	-1.2342455	0.25381581	-0.096147256	-0.77815434	0.055614157	0.097990161	-1.2080076	0.23362624	-0.0027995875	-0.76738729	0.093720085	0.005412556	-1.3016895	0.28921413	-0.039281804	-0.84689157	0.03098605	0.050535052	-0.87030188	0.44250522	-0.12732144	-0.6928608	0.50089236	0.15458133	-0.85829489	0.42638864	-0.0015139498	-0.71640575	0.49126533	0.031181629	-0.8931912	0.85243265	-0.14200152	-0.86213016	0.86907556	0.23055534	-0.80479981	0.9400153	-0.090794635	-0.78889369	0.95907261	0.15079327	-0.96344226	1.0049703	0.041369687	-0.79882678	1.40404	-0.12204923	-0.82884042	1.4118378	0.20708753	-0.87979096	1.4576449	0.039069183	-0.94857537	1.0732642	-0.19708509	-0.99769715	1.0937171	0.28042214	-0.81781464	0.8410979	-0.21318556	-0.90329448	0.83760299	0.30920835
73	0.288	-1.1806515	0.099422464	-0.062166031	-0.63153793	0.040183637	0.062216472	-1.2207239	0.25352734	-0.09655112	-0.77817546	0.055614198	0.097960475	-1.1941899	0.23314005	-0.0032145139	-0.76740945	0.09381689	0.0054622403	-1.288773	0.28789301	-0.040127991	-0.84689717	0.031051046	0.050467482	-0.85799622	0.44446031	-0.12693629	-0.6909688	0.50041727	0.15494605	-0.84662629	0.42847501	-0.0011225887	-0.71446114	0.49107507	0.031420429	-0.88673619	0.8542329	-0.14193711	-0.85674046	0.87032356	0.23069552	-0.79924865	0.94190731	-0.09039605	-0.78369663	0.96030398	0.15111684	-0.95803218	1.0066378	0.041420176	-0.79357417	1.4056069	-0.12213191	-0.82307913	1.4134648	0.20707598	-0.87416992	1.4591832	0.038925165	-0.94385012	1.0750302	-0.196842	-0.99158497	1.0951106	0.2808412	-0.8139704	0.84251616	-0.21345324	-0.89624099	0.8393343	0.30924659
74	0.292	-1.1644853	0.09962646	-0.064084762	-0.63161524	0.04021011	0.062393556	-1.2070423	0.25297977	-0.096980705	-0.77813647	0.055615505	0.097943263	-1.1794117	0.23247375	-0.0039747934	-0.76742726	0.093907253	0.0055272089	-1.2755362	0.28630033	-0.041386241	-0.84689249	0.031120395	0.05042579	-0.84585604	0.44657892	-0.12659266	-0.68901514	0.4998876	0.15527588	-0.83515451	0.43074071	-0.00073472788	-0.71253294	0.4908699	0.031587138	-0.88035396	0.85610612	-0.14187301	-0.85135784	0.87154487	0.23084493	-0.79368736	0.94384919	-0.089986164	-0.77852846	0.96152307	0.15146299	-0.95249356	1.0082761	0.04166632	-0.78835487	1.407198	-0.12221938	-0.81736312	1.4151203	0.20707028	-0.86855616	1.4607597	0.038795503	-0.93915965	1.076827	-0.19658754	-0.98545839	1.0965015	0.28128098	-0.81010445	0.84398097	-0.21369312	-0.88918176	0.84108857	0.30929631
75	0.296	-1.1481215	0.099647832	-0.065911857	-0.63168685	0.040235311	0.062565729	-1.19322	0.25217847	-0.097434445	-0.7780648	0.055623239	0.097947313	-1.1645182	0.23160377	-0.0047929472	-0.76744257	0.093985556	0.0056063815	-1.2622854	0.28438855	-0.042476519	-0.84688141	0.031187993	0.050404119	-0.83378159	0.44879223	-0.12633146	-0.68710341	0.49938196	0.15555642	-0.82354026	0.43308041	-0.00030576664	-0.71069949	0.49065343	0.031763647	-0.87400271	0.85803566	-0.14182741	-0.8462925	0.8727251	0.2309763	-0.7881153	0.94582151	-0.089565386	-0.77338796	0.96273185	0.15182907	-0.94696114	1.0098911	0.041862528	-0.78316781	1.408797	-0.12231683	-0.8116753	1.4167824	0.20705462	-0.86295326	1.4623481	0.038675512	-0.93449976	1.0786378	-0.19631858	-0.97931906	1.0978935	0.28174506	-0.80623618	0.84547782	-0.21393947	-0.88213355	0.84285296	0.30934771
